<svg id="colorSvgCardExport-no-id" xmlns="http://www.w3.org/2000/svg" width="1080" height="1080" viewBox="0 0 1080 1080"><defs><filter id="Rectangle_3567" x="-40" y="-11" width="1160" height="1072" filterUnits="userSpaceOnUse"><feOffset dy="29"/><feGaussianBlur stdDeviation="30" result="blur"/><feFlood flood-opacity="0.078"/><feComposite operator="in" in2="blur"/><feComposite in="SourceGraphic"/></filter></defs><rect width="1080" height="1080" fill="#fff"/><g transform="matrix(1, 0, 0, 1, 0, 0)" filter="url(#Rectangle_3567)"><rect id="Rectangle_3567-2" data-name="Rectangle 3567" width="980" height="892" rx="30" transform="translate(50 50)" fill="#6cafc4"/></g><text id="https:_colors.dopely.top_a4s301" data-name="https://colors.dopely.top/a4s301" transform="translate(990 1024)" font-size="16" font-family="Poppins-Bold, Poppins" font-weight="700"><tspan x="-270.352" y="0">https://colors.dopely.top/6cafc4</tspan></text><text fill="#000" id="mint_green" data-name="mint green" transform="translate(170 255)" font-size="48" font-family="Poppins-SemiBold, Poppins" font-weight="600"><tspan x="0" y="0">Glacier</tspan></text><text fill="#000" id="_2A255C" data-name="2A255C" transform="translate(170 453)" font-size="29" font-family="Poppins-Bold, Poppins" font-weight="700"><tspan x="0" y="0">#6CAFC4</tspan></text><text fill="#000" id="_54_59_0_63" data-name="54, 59, 0, 63" transform="translate(170 573)" font-size="29" font-family="Poppins-Bold, Poppins" font-weight="700"><tspan x="0" y="0">108 , 175 , 196</tspan></text><text fill="#000" id="_54_59_0_63-3" data-name="54, 59, 0, 63" transform="translate(170 692)" font-size="29" font-family="Poppins-Bold, Poppins" font-weight="700"><tspan x="0" y="0">45 , 11 , 0 , 23</tspan></text><text fill="#000" id="_245_60_36" data-name="245, 60, 36" transform="translate(170 812)" font-size="29" font-family="Poppins-Bold, Poppins" font-weight="700"><tspan x="0" y="0">194 , 45 , 77</tspan></text><text fill="#000" id="_245_43_25" data-name="245, 43, 25" transform="translate(910 453)" font-size="29" font-family="Poppins-Bold, Poppins" font-weight="700"><tspan x="-156.571" y="0">194 , 43 , 60</tspan></text><text id="hex" fill="#000" transform="translate(170 407)" font-size="27" font-family="Poppins-Medium, Poppins" font-weight="500" opacity="0.5"><tspan x="0" y="0">hex</tspan></text><text id="rgb" fill="#000" transform="translate(170 527)" font-size="27" font-family="Poppins-Medium, Poppins" font-weight="500" opacity="0.5"><tspan x="0" y="0">rgb</tspan></text><text id="cmyk" fill="#000" transform="translate(170 646)" font-size="27" font-family="Poppins-Medium, Poppins" font-weight="500" opacity="0.5"><tspan x="0" y="0">cmyk</tspan></text><text id="hsb" fill="#000" transform="translate(170 766)" font-size="27" font-family="Poppins-Medium, Poppins" font-weight="500" opacity="0.5"><tspan x="0" y="0">hsb</tspan></text><text id="hsl" fill="#000" transform="translate(910 407)" font-size="27" font-family="Poppins-Medium, Poppins" font-weight="500" opacity="0.5"><tspan x="-39.069" y="0">hsl</tspan></text><path id="dopelyLogo" data-name="Path 61479" d="M-57.255-16.734h-8.217V3.381h8.217A9.839,9.839,0,0,0-47.276-6.677,9.839,9.839,0,0,0-57.255-16.734Zm0,15.689h-3.522V-12.309h3.522c3.228,0,5.459,2.184,5.459,5.632S-54.026-1.044-57.255-1.044Zm22.422,4.827A10.483,10.483,0,0,0-24.15-6.677a10.483,10.483,0,0,0-10.683-10.46A10.483,10.483,0,0,0-45.515-6.677,10.483,10.483,0,0,0-34.833,3.783Zm0-4.483A5.782,5.782,0,0,1-40.82-6.677a5.782,5.782,0,0,1,5.987-5.977,5.782,5.782,0,0,1,5.987,5.977A5.782,5.782,0,0,1-34.833-.7Zm21.1-16.034h-7.777V3.381h4.7V-2.941h3.082a6.99,6.99,0,0,0,7.19-6.9A6.99,6.99,0,0,0-13.732-16.734Zm0,9.483h-3.082v-5.172h3.082a2.482,2.482,0,0,1,2.495,2.586A2.482,2.482,0,0,1-13.732-7.251ZM.5-1.044V-4.608H7.839V-8.975H.5v-3.333H8.573v-4.425H-4.193V3.381H8.72V-1.044Zm15.554,0V-16.734h-4.7V3.381H23.394V-1.044ZM39.535-16.734H34.194l-3.9,7.758-3.9-7.758H21.046l6.9,12.385v7.73h4.7v-7.73Zm.587,20.517a2.777,2.777,0,0,0,2.788-2.73,2.789,2.789,0,0,0-5.576,0A2.777,2.777,0,0,0,40.122,3.783ZM56.85-16.734H41.589v4.425h5.283V3.381h4.7V-12.309H56.85ZM67.533,3.783A10.483,10.483,0,0,0,78.216-6.677a10.483,10.483,0,0,0-10.683-10.46A10.483,10.483,0,0,0,56.85-6.677,10.483,10.483,0,0,0,67.533,3.783Zm0-4.483a5.782,5.782,0,0,1-5.987-5.977,5.782,5.782,0,0,1,5.987-5.977A5.782,5.782,0,0,1,73.52-6.677,5.782,5.782,0,0,1,67.533-.7Zm21.1-16.034H80.857V3.381h4.7V-2.941h3.082a6.99,6.99,0,0,0,7.19-6.9A6.99,6.99,0,0,0,88.634-16.734Zm0,9.483H85.553v-5.172h3.082a2.482,2.482,0,0,1,2.495,2.586A2.482,2.482,0,0,1,88.634-7.251Z" transform="translate(154.98 1026.137)"/><text id="made_with" data-name="made with" transform="translate(90 995)" stroke="rgba(0,0,0,0)" stroke-width="1" font-size="12" font-family="Poppins-Bold, Poppins" font-weight="700" opacity="0.3"><tspan x="0" y="0">made with</tspan></text><text id="dopely.top" fill="#000" transform="translate(170 196)" font-size="25" font-family="Poppins-Medium, Poppins" font-weight="500" letter-spacing="0.316em" opacity="0.4"><tspan x="0" y="0">DOPELY.TOP</tspan></text></svg>